<svg width="663" height="645" viewBox="0 0 663 645" fill="none" xmlns="http://www.w3.org/2000/svg">
<g style="mix-blend-mode:hard-light">
<path d="M0 16C0 8.45753 0 4.68629 2.34315 2.34315C4.68629 0 8.45753 0 16 0H647C654.542 0 658.314 0 660.657 2.34315C663 4.68629 663 8.45753 663 16V629C663 636.542 663 640.314 660.657 642.657C658.314 645 654.542 645 647 645H16C8.45753 645 4.68629 645 2.34315 642.657C0 640.314 0 636.542 0 629V16Z" fill="#777777"/>
<path d="M0.5 16C0.5 12.2146 0.501062 9.4259 0.788435 7.28845C1.07387 5.16538 1.63351 3.75989 2.6967 2.6967C3.75989 1.63351 5.16538 1.07387 7.28845 0.788435C9.4259 0.501062 12.2146 0.5 16 0.5H647C650.785 0.5 653.574 0.501062 655.712 0.788435C657.835 1.07387 659.24 1.63351 660.303 2.6967C661.367 3.75989 661.926 5.16538 662.212 7.28845C662.499 9.4259 662.5 12.2146 662.5 16V629C662.5 632.785 662.499 635.574 662.212 637.712C661.926 639.835 661.367 641.24 660.303 642.303C659.24 643.367 657.835 643.926 655.712 644.212C653.574 644.499 650.785 644.5 647 644.5H16C12.2146 644.5 9.4259 644.499 7.28845 644.212C5.16538 643.926 3.75989 643.367 2.6967 642.303C1.63351 641.24 1.07387 639.835 0.788435 637.712C0.501062 635.574 0.5 632.785 0.5 629V16Z" stroke="black" stroke-opacity="0.67"/>
</g>
</svg>
