<svg width="30" height="60" viewBox="0 0 30 60" fill="none" xmlns="http://www.w3.org/2000/svg">
<path d="M9.69358 20.1171C9.69358 9.22997 18.5194 0.40419 29.4065 0.40419V28.936H9.69358V20.1171Z" fill="#35ADAF" stroke="#35ADAF" stroke-width="0.805851"/>
<rect x="9.69358" y="28.9361" width="19.7129" height="2.12795" fill="#35ADAF" stroke="#35ADAF" stroke-width="0.805851"/>
<path fill-rule="evenodd" clip-rule="evenodd" d="M10.0514 43.6412C9.8166 42.4246 9.69361 41.1681 9.69361 39.8829V31.064H29.4065V59.5958C24.6329 59.5958 20.2555 57.899 16.8447 55.0757C13.4419 57.3426 7.98557 59.4975 1.39338 58.2989C3.20904 57.5208 10.2123 52.8519 9.95293 43.5142C9.98443 43.5575 10.0173 43.5999 10.0514 43.6412Z" fill="#35ADAF"/>
<path d="M10.0514 43.6412L9.73989 43.8986L10.4483 43.5646L10.0514 43.6412ZM9.69361 31.064V30.6598H9.28944V31.064H9.69361ZM29.4065 31.064H29.8107V30.6598H29.4065V31.064ZM29.4065 59.5958V60H29.8107V59.5958H29.4065ZM16.8447 55.0757L17.1024 54.7644L16.8708 54.5727L16.6206 54.7393L16.8447 55.0757ZM1.39338 58.2989L1.23417 57.9274L1.19575e-06 58.4564L1.32108 58.6966L1.39338 58.2989ZM9.95293 43.5142L10.2798 43.2765L9.51271 42.2218L9.54892 43.5255L9.95293 43.5142ZM9.28944 39.8829C9.28944 41.1939 9.41491 42.4761 9.65461 43.7178L10.4483 43.5646C10.2183 42.3731 10.0978 41.1423 10.0978 39.8829H9.28944ZM9.28944 31.064V39.8829H10.0978V31.064H9.28944ZM29.4065 30.6598H9.69361V31.4681H29.4065V30.6598ZM29.8107 59.5958V31.064H29.0024V59.5958H29.8107ZM16.587 55.387C20.0676 58.2682 24.5354 60 29.4065 60V59.1917C24.7304 59.1917 20.4435 57.5299 17.1024 54.7644L16.587 55.387ZM1.32108 58.6966C8.04201 59.9185 13.6034 57.7207 17.0688 55.4121L16.6206 54.7393C13.2805 56.9646 7.92914 59.0764 1.46567 57.9013L1.32108 58.6966ZM9.54892 43.5255C9.67551 48.0827 8.03211 51.4934 6.13569 53.8639C4.23135 56.2444 2.08009 57.5649 1.23417 57.9274L1.55258 58.6704C2.52233 58.2548 4.78053 56.8518 6.76689 54.3689C8.76118 51.876 10.4897 48.2834 10.3569 43.503L9.54892 43.5255ZM10.363 43.3838C10.3341 43.3487 10.3063 43.313 10.2798 43.2765L9.62607 43.7519C9.66254 43.8021 9.7005 43.851 9.73989 43.8986L10.363 43.3838Z" fill="#35ADAF"/>
</svg>
